<svg xmlns="http://www.w3.org/2000/svg" xmlns:xlink="http://www.w3.org/1999/xlink" xmlns:lucid="lucid" width="2022" height="1576.84"><g transform="translate(1661 400)" lucid:page-tab-id="0_0"><path d="M-960-394a6 6 0 0 1 6-6h608a6 6 0 0 1 6 6v711a6 6 0 0 1-6 6h-608a6 6 0 0 1-6-6z" fill="#cfe4ff"/><path d="M-960-351.73h620M-960-62.6h620" fill="none"/><use xlink:href="#a" transform="matrix(1,0,0,1,-952,-392) translate(239.74088541666669 26.200520833333336)"/><use xlink:href="#b" transform="matrix(1,0,0,1,-948,-343.734375) translate(0 33.770833333333336)"/><use xlink:href="#c" transform="matrix(1,0,0,1,-948,-343.734375) translate(25.143229166666668 33.770833333333336)"/><use xlink:href="#d" transform="matrix(1,0,0,1,-948,-343.734375) translate(194.03645833333331 33.770833333333336)"/><use xlink:href="#e" transform="matrix(1,0,0,1,-948,-343.734375) translate(0 66.03645833333334)"/><use xlink:href="#f" transform="matrix(1,0,0,1,-948,-343.734375) translate(25.143229166666668 66.03645833333334)"/><use xlink:href="#g" transform="matrix(1,0,0,1,-948,-343.734375) translate(109.96093750000001 66.03645833333334)"/><use xlink:href="#e" transform="matrix(1,0,0,1,-948,-343.734375) translate(0 98.30208333333334)"/><use xlink:href="#h" transform="matrix(1,0,0,1,-948,-343.734375) translate(25.143229166666668 98.30208333333334)"/><use xlink:href="#g" transform="matrix(1,0,0,1,-948,-343.734375) translate(96.43229166666667 98.30208333333334)"/><use xlink:href="#e" transform="matrix(1,0,0,1,-948,-343.734375) translate(0 130.56770833333334)"/><use xlink:href="#i" transform="matrix(1,0,0,1,-948,-343.734375) translate(25.143229166666668 130.56770833333334)"/><use xlink:href="#j" transform="matrix(1,0,0,1,-948,-343.734375) translate(224.64843749999997 130.56770833333334)"/><use xlink:href="#e" transform="matrix(1,0,0,1,-948,-343.734375) translate(0 162.83333333333334)"/><use xlink:href="#k" transform="matrix(1,0,0,1,-948,-343.734375) translate(25.143229166666668 162.83333333333334)"/><use xlink:href="#j" transform="matrix(1,0,0,1,-948,-343.734375) translate(249.79166666666663 162.83333333333334)"/><use xlink:href="#e" transform="matrix(1,0,0,1,-948,-343.734375) translate(0 195.09895833333334)"/><use xlink:href="#l" transform="matrix(1,0,0,1,-948,-343.734375) translate(25.143229166666668 195.09895833333334)"/><use xlink:href="#j" transform="matrix(1,0,0,1,-948,-343.734375) translate(175.15624999999997 195.09895833333334)"/><use xlink:href="#e" transform="matrix(1,0,0,1,-948,-343.734375) translate(0 227.36458333333334)"/><use xlink:href="#m" transform="matrix(1,0,0,1,-948,-343.734375) translate(25.143229166666668 227.36458333333334)"/><use xlink:href="#j" transform="matrix(1,0,0,1,-948,-343.734375) translate(118.21614583333336 227.36458333333334)"/><use xlink:href="#e" transform="matrix(1,0,0,1,-948,-343.734375) translate(0 259.6302083333333)"/><use xlink:href="#n" transform="matrix(1,0,0,1,-948,-343.734375) translate(25.143229166666668 259.6302083333333)"/><use xlink:href="#o" transform="matrix(1,0,0,1,-948,-343.734375) translate(117.46093750000001 259.6302083333333)"/><use xlink:href="#b" transform="matrix(1,0,0,1,-948,-54.609375) translate(0 33.372395833333336)"/><use xlink:href="#p" transform="matrix(1,0,0,1,-948,-54.609375) translate(25.143229166666668 33.372395833333336)"/><use xlink:href="#q" transform="matrix(1,0,0,1,-948,-54.609375) translate(295.78125000000006 33.372395833333336)"/><use xlink:href="#b" transform="matrix(1,0,0,1,-948,-54.609375) translate(0 65.63802083333334)"/><use xlink:href="#r" transform="matrix(1,0,0,1,-948,-54.609375) translate(25.143229166666668 65.63802083333334)"/><use xlink:href="#s" transform="matrix(1,0,0,1,-948,-54.609375) translate(284.4010416666667 65.63802083333334)"/><use xlink:href="#b" transform="matrix(1,0,0,1,-948,-54.609375) translate(0 97.90364583333334)"/><use xlink:href="#t" transform="matrix(1,0,0,1,-948,-54.609375) translate(25.143229166666668 97.90364583333334)"/><use xlink:href="#b" transform="matrix(1,0,0,1,-948,-54.609375) translate(0 130.16927083333334)"/><use xlink:href="#u" transform="matrix(1,0,0,1,-948,-54.609375) translate(25.143229166666668 130.16927083333334)"/><use xlink:href="#v" transform="matrix(1,0,0,1,-948,-54.609375) translate(390.7291666666666 130.16927083333334)"/><use xlink:href="#e" transform="matrix(1,0,0,1,-948,-54.609375) translate(0 162.43489583333334)"/><use xlink:href="#w" transform="matrix(1,0,0,1,-948,-54.609375) translate(25.143229166666668 162.43489583333334)"/><use xlink:href="#e" transform="matrix(1,0,0,1,-948,-54.609375) translate(0 194.70052083333334)"/><use xlink:href="#x" transform="matrix(1,0,0,1,-948,-54.609375) translate(25.143229166666668 194.70052083333334)"/><use xlink:href="#e" transform="matrix(1,0,0,1,-948,-54.609375) translate(0 226.96614583333334)"/><use xlink:href="#y" transform="matrix(1,0,0,1,-948,-54.609375) translate(25.143229166666668 226.96614583333334)"/><use xlink:href="#e" transform="matrix(1,0,0,1,-948,-54.609375) translate(0 259.2317708333333)"/><use xlink:href="#z" transform="matrix(1,0,0,1,-948,-54.609375) translate(25.143229166666668 259.2317708333333)"/><use xlink:href="#e" transform="matrix(1,0,0,1,-948,-54.609375) translate(0 291.4973958333333)"/><use xlink:href="#A" transform="matrix(1,0,0,1,-948,-54.609375) translate(25.143229166666668 291.4973958333333)"/><use xlink:href="#e" transform="matrix(1,0,0,1,-948,-54.609375) translate(0 323.7630208333333)"/><use xlink:href="#B" transform="matrix(1,0,0,1,-948,-54.609375) translate(25.143229166666668 323.7630208333333)"/><use xlink:href="#e" transform="matrix(1,0,0,1,-948,-54.609375) translate(0 356.0286458333333)"/><use xlink:href="#C" transform="matrix(1,0,0,1,-948,-54.609375) translate(25.143229166666668 356.0286458333333)"/><path d="M-1660 6a6 6 0 0 1 6-6h408a6 6 0 0 1 6 6v292a6 6 0 0 1-6 6h-408a6 6 0 0 1-6-6z" stroke="#3a414a" stroke-width="2" fill="#cfe4ff"/><path d="M-1660 48.27h420m-420 192.32h420" stroke="#3a414a" stroke-width="2" fill="none"/><g><use xlink:href="#D" transform="matrix(1,0,0,1,-1652,8) translate(166.51822916666666 26.200520833333336)"/></g><g><use xlink:href="#b" transform="matrix(1,0,0,1,-1648,56.265625) translate(0 33.669270833333336)"/><use xlink:href="#E" transform="matrix(1,0,0,1,-1648,56.265625) translate(25.143229166666668 33.669270833333336)"/><use xlink:href="#s" transform="matrix(1,0,0,1,-1648,56.265625) translate(96.43229166666667 33.669270833333336)"/><use xlink:href="#b" transform="matrix(1,0,0,1,-1648,56.265625) translate(0 65.93489583333334)"/><use xlink:href="#F" transform="matrix(1,0,0,1,-1648,56.265625) translate(25.143229166666668 65.93489583333334)"/><use xlink:href="#G" transform="matrix(1,0,0,1,-1648,56.265625) translate(175.15624999999997 65.93489583333334)"/><use xlink:href="#b" transform="matrix(1,0,0,1,-1648,56.265625) translate(0 98.20052083333334)"/><use xlink:href="#H" transform="matrix(1,0,0,1,-1648,56.265625) translate(25.143229166666668 98.20052083333334)"/><use xlink:href="#G" transform="matrix(1,0,0,1,-1648,56.265625) translate(224.64843749999997 98.20052083333334)"/><use xlink:href="#b" transform="matrix(1,0,0,1,-1648,56.265625) translate(0 130.46614583333334)"/><use xlink:href="#I" transform="matrix(1,0,0,1,-1648,56.265625) translate(25.143229166666668 130.46614583333334)"/><use xlink:href="#G" transform="matrix(1,0,0,1,-1648,56.265625) translate(249.79166666666663 130.46614583333334)"/><use xlink:href="#b" transform="matrix(1,0,0,1,-1648,56.265625) translate(0 162.73177083333334)"/><use xlink:href="#J" transform="matrix(1,0,0,1,-1648,56.265625) translate(25.143229166666668 162.73177083333334)"/><use xlink:href="#K" transform="matrix(1,0,0,1,-1648,56.265625) translate(235.39062500000003 162.73177083333334)"/></g><path d="M-1003.47-38.5H-1111a6 6 0 0 0-6 6V146a6 6 0 0 1-6 6h-114.5" stroke="#3a414a" stroke-width="3" fill="none"/><path d="M-963-38.5l-38.97 22.5v-45z" stroke="#3a414a" stroke-width="3" fill="#fff"/><path d="M-1237.46 153.47h-1.54v-2.94h1.54z" stroke="#3a414a" stroke-width=".05" fill="#3a414a"/><path d="M-1660 441.92a6 6 0 0 1 6-6h408a6 6 0 0 1 6 6v292a6 6 0 0 1-6 6h-408a6 6 0 0 1-6-6z" stroke="#3a414a" stroke-width="2" fill="#cfe4ff"/><path d="M-1660 484.2h420m-420 192.3h420" stroke="#3a414a" stroke-width="2" fill="none"/><g><use xlink:href="#L" transform="matrix(1,0,0,1,-1652,443.9200395260698) translate(155.35286458333334 26.200520833333336)"/></g><g><use xlink:href="#b" transform="matrix(1,0,0,1,-1648,492.1856645260698) translate(0 33.669270833333336)"/><use xlink:href="#E" transform="matrix(1,0,0,1,-1648,492.1856645260698) translate(25.143229166666668 33.669270833333336)"/><use xlink:href="#s" transform="matrix(1,0,0,1,-1648,492.1856645260698) translate(96.43229166666667 33.669270833333336)"/><use xlink:href="#b" transform="matrix(1,0,0,1,-1648,492.1856645260698) translate(0 65.93489583333334)"/><use xlink:href="#F" transform="matrix(1,0,0,1,-1648,492.1856645260698) translate(25.143229166666668 65.93489583333334)"/><use xlink:href="#G" transform="matrix(1,0,0,1,-1648,492.1856645260698) translate(175.15624999999997 65.93489583333334)"/><use xlink:href="#b" transform="matrix(1,0,0,1,-1648,492.1856645260698) translate(0 98.20052083333334)"/><use xlink:href="#H" transform="matrix(1,0,0,1,-1648,492.1856645260698) translate(25.143229166666668 98.20052083333334)"/><use xlink:href="#G" transform="matrix(1,0,0,1,-1648,492.1856645260698) translate(224.64843749999997 98.20052083333334)"/><use xlink:href="#b" transform="matrix(1,0,0,1,-1648,492.1856645260698) translate(0 130.46614583333334)"/><use xlink:href="#I" transform="matrix(1,0,0,1,-1648,492.1856645260698) translate(25.143229166666668 130.46614583333334)"/><use xlink:href="#G" transform="matrix(1,0,0,1,-1648,492.1856645260698) translate(249.79166666666663 130.46614583333334)"/><use xlink:href="#b" transform="matrix(1,0,0,1,-1648,492.1856645260698) translate(0 162.73177083333334)"/><use xlink:href="#J" transform="matrix(1,0,0,1,-1648,492.1856645260698) translate(25.143229166666668 162.73177083333334)"/><use xlink:href="#K" transform="matrix(1,0,0,1,-1648,492.1856645260698) translate(235.39062500000003 162.73177083333334)"/></g><path d="M-1003.47-38.5H-1074a6 6 0 0 0-6 6v614.42a6 6 0 0 1-6 6h-151.5" stroke="#3a414a" stroke-width="3" fill="none"/><path d="M-963-38.5l-38.97 22.5v-45z" stroke="#3a414a" stroke-width="3" fill="#fff"/><path d="M-1237.46 589.4h-1.54v-2.95h1.54z" stroke="#3a414a" stroke-width=".05" fill="#3a414a"/><path d="M-1660 877.84a6 6 0 0 1 6-6h408a6 6 0 0 1 6 6v292a6 6 0 0 1-6 6h-408a6 6 0 0 1-6-6z" stroke="#3a414a" stroke-width="2" fill="#cfe4ff"/><path d="M-1660 920.1h420m-420 192.33h420" stroke="#3a414a" stroke-width="2" fill="none"/><g><use xlink:href="#M" transform="matrix(1,0,0,1,-1652,879.8400790521396) translate(159.70833333333331 26.200520833333336)"/></g><g><use xlink:href="#b" transform="matrix(1,0,0,1,-1648,928.1057040521396) translate(0 33.669270833333336)"/><use xlink:href="#E" transform="matrix(1,0,0,1,-1648,928.1057040521396) translate(25.143229166666668 33.669270833333336)"/><use xlink:href="#s" transform="matrix(1,0,0,1,-1648,928.1057040521396) translate(96.43229166666667 33.669270833333336)"/><use xlink:href="#b" transform="matrix(1,0,0,1,-1648,928.1057040521396) translate(0 65.93489583333334)"/><use xlink:href="#F" transform="matrix(1,0,0,1,-1648,928.1057040521396) translate(25.143229166666668 65.93489583333334)"/><use xlink:href="#G" transform="matrix(1,0,0,1,-1648,928.1057040521396) translate(175.15624999999997 65.93489583333334)"/><use xlink:href="#b" transform="matrix(1,0,0,1,-1648,928.1057040521396) translate(0 98.20052083333334)"/><use xlink:href="#H" transform="matrix(1,0,0,1,-1648,928.1057040521396) translate(25.143229166666668 98.20052083333334)"/><use xlink:href="#G" transform="matrix(1,0,0,1,-1648,928.1057040521396) translate(224.64843749999997 98.20052083333334)"/><use xlink:href="#b" transform="matrix(1,0,0,1,-1648,928.1057040521396) translate(0 130.46614583333334)"/><use xlink:href="#I" transform="matrix(1,0,0,1,-1648,928.1057040521396) translate(25.143229166666668 130.46614583333334)"/><use xlink:href="#G" transform="matrix(1,0,0,1,-1648,928.1057040521396) translate(249.79166666666663 130.46614583333334)"/><use xlink:href="#b" transform="matrix(1,0,0,1,-1648,928.1057040521396) translate(0 162.73177083333334)"/><use xlink:href="#J" transform="matrix(1,0,0,1,-1648,928.1057040521396) translate(25.143229166666668 162.73177083333334)"/><use xlink:href="#K" transform="matrix(1,0,0,1,-1648,928.1057040521396) translate(235.39062500000003 162.73177083333334)"/></g><path d="M-296.53-38.5H-166a6 6 0 0 1 6 6V146a6 6 0 0 0 6 6h91.5" stroke="#3a414a" stroke-width="3" fill="none"/><path d="M-337-38.5l38.97-22.5v45z" stroke="#3a414a" stroke-width="3" fill="#fff"/><path d="M-61 153.47h-1.54v-2.94H-61z" stroke="#3a414a" stroke-width=".05" fill="#3a414a"/><path d="M-60 420.42a6 6 0 0 1 6-6h408a6 6 0 0 1 6 6v292a6 6 0 0 1-6 6H-54a6 6 0 0 1-6-6z" stroke="#3a414a" stroke-width="2" fill="#cfe4ff"/><path d="M-60 462.7h420M-60 655h420" stroke="#3a414a" stroke-width="2" fill="none"/><g><use xlink:href="#N" transform="matrix(1,0,0,1,-52,422.4200395260698) translate(179.38932291666666 26.200520833333336)"/></g><g><use xlink:href="#b" transform="matrix(1,0,0,1,-48,470.6856645260698) translate(0 33.669270833333336)"/><use xlink:href="#E" transform="matrix(1,0,0,1,-48,470.6856645260698) translate(25.143229166666668 33.669270833333336)"/><use xlink:href="#s" transform="matrix(1,0,0,1,-48,470.6856645260698) translate(96.43229166666667 33.669270833333336)"/><use xlink:href="#b" transform="matrix(1,0,0,1,-48,470.6856645260698) translate(0 65.93489583333334)"/><use xlink:href="#F" transform="matrix(1,0,0,1,-48,470.6856645260698) translate(25.143229166666668 65.93489583333334)"/><use xlink:href="#G" transform="matrix(1,0,0,1,-48,470.6856645260698) translate(175.15624999999997 65.93489583333334)"/><use xlink:href="#b" transform="matrix(1,0,0,1,-48,470.6856645260698) translate(0 98.20052083333334)"/><use xlink:href="#H" transform="matrix(1,0,0,1,-48,470.6856645260698) translate(25.143229166666668 98.20052083333334)"/><use xlink:href="#G" transform="matrix(1,0,0,1,-48,470.6856645260698) translate(224.64843749999997 98.20052083333334)"/><use xlink:href="#b" transform="matrix(1,0,0,1,-48,470.6856645260698) translate(0 130.46614583333334)"/><use xlink:href="#I" transform="matrix(1,0,0,1,-48,470.6856645260698) translate(25.143229166666668 130.46614583333334)"/><use xlink:href="#G" transform="matrix(1,0,0,1,-48,470.6856645260698) translate(249.79166666666663 130.46614583333334)"/><use xlink:href="#b" transform="matrix(1,0,0,1,-48,470.6856645260698) translate(0 162.73177083333334)"/><use xlink:href="#J" transform="matrix(1,0,0,1,-48,470.6856645260698) translate(25.143229166666668 162.73177083333334)"/><use xlink:href="#K" transform="matrix(1,0,0,1,-48,470.6856645260698) translate(235.39062500000003 162.73177083333334)"/></g><path d="M-296.53-38.5h90.03a6 6 0 0 1 6 6v592.92a6 6 0 0 0 6 6h132" stroke="#3a414a" stroke-width="3" fill="none"/><path d="M-337-38.5l38.97-22.5v45z" stroke="#3a414a" stroke-width="3" fill="#fff"/><path d="M-61 567.9h-1.54v-2.95H-61z" stroke="#3a414a" stroke-width=".05" fill="#3a414a"/><path d="M-60 856.34a6 6 0 0 1 6-6h408a6 6 0 0 1 6 6v292a6 6 0 0 1-6 6H-54a6 6 0 0 1-6-6z" stroke="#3a414a" stroke-width="2" fill="#cfe4ff"/><path d="M-60 898.6h420m-420 192.33h420" stroke="#3a414a" stroke-width="2" fill="none"/><g><use xlink:href="#O" transform="matrix(1,0,0,1,-52,858.3400790521396) translate(155.82161458333334 26.200520833333336)"/></g><g><use xlink:href="#b" transform="matrix(1,0,0,1,-48,906.6057040521396) translate(0 33.669270833333336)"/><use xlink:href="#E" transform="matrix(1,0,0,1,-48,906.6057040521396) translate(25.143229166666668 33.669270833333336)"/><use xlink:href="#s" transform="matrix(1,0,0,1,-48,906.6057040521396) translate(96.43229166666667 33.669270833333336)"/><use xlink:href="#b" transform="matrix(1,0,0,1,-48,906.6057040521396) translate(0 65.93489583333334)"/><use xlink:href="#F" transform="matrix(1,0,0,1,-48,906.6057040521396) translate(25.143229166666668 65.93489583333334)"/><use xlink:href="#G" transform="matrix(1,0,0,1,-48,906.6057040521396) translate(175.15624999999997 65.93489583333334)"/><use xlink:href="#b" transform="matrix(1,0,0,1,-48,906.6057040521396) translate(0 98.20052083333334)"/><use xlink:href="#H" transform="matrix(1,0,0,1,-48,906.6057040521396) translate(25.143229166666668 98.20052083333334)"/><use xlink:href="#G" transform="matrix(1,0,0,1,-48,906.6057040521396) translate(224.64843749999997 98.20052083333334)"/><use xlink:href="#b" transform="matrix(1,0,0,1,-48,906.6057040521396) translate(0 130.46614583333334)"/><use xlink:href="#I" transform="matrix(1,0,0,1,-48,906.6057040521396) translate(25.143229166666668 130.46614583333334)"/><use xlink:href="#G" transform="matrix(1,0,0,1,-48,906.6057040521396) translate(249.79166666666663 130.46614583333334)"/><use xlink:href="#b" transform="matrix(1,0,0,1,-48,906.6057040521396) translate(0 162.73177083333334)"/><use xlink:href="#J" transform="matrix(1,0,0,1,-48,906.6057040521396) translate(25.143229166666668 162.73177083333334)"/><use xlink:href="#K" transform="matrix(1,0,0,1,-48,906.6057040521396) translate(235.39062500000003 162.73177083333334)"/></g><path d="M-60 6a6 6 0 0 1 6-6h408a6 6 0 0 1 6 6v292a6 6 0 0 1-6 6H-54a6 6 0 0 1-6-6z" stroke="#3a414a" stroke-width="2" fill="#cfe4ff"/><path d="M-60 48.27h420M-60 240.6h420" stroke="#3a414a" stroke-width="2" fill="none"/><g><use xlink:href="#P" transform="matrix(1,0,0,1,-51.999999999999886,8) translate(161.55729166666666 26.200520833333336)"/></g><g><use xlink:href="#b" transform="matrix(1,0,0,1,-47.999999999999886,56.265625) translate(0 33.669270833333336)"/><use xlink:href="#E" transform="matrix(1,0,0,1,-47.999999999999886,56.265625) translate(25.143229166666668 33.669270833333336)"/><use xlink:href="#s" transform="matrix(1,0,0,1,-47.999999999999886,56.265625) translate(96.43229166666667 33.669270833333336)"/><use xlink:href="#b" transform="matrix(1,0,0,1,-47.999999999999886,56.265625) translate(0 65.93489583333334)"/><use xlink:href="#F" transform="matrix(1,0,0,1,-47.999999999999886,56.265625) translate(25.143229166666668 65.93489583333334)"/><use xlink:href="#G" transform="matrix(1,0,0,1,-47.999999999999886,56.265625) translate(175.15624999999997 65.93489583333334)"/><use xlink:href="#b" transform="matrix(1,0,0,1,-47.999999999999886,56.265625) translate(0 98.20052083333334)"/><use xlink:href="#H" transform="matrix(1,0,0,1,-47.999999999999886,56.265625) translate(25.143229166666668 98.20052083333334)"/><use xlink:href="#G" transform="matrix(1,0,0,1,-47.999999999999886,56.265625) translate(224.64843749999997 98.20052083333334)"/><use xlink:href="#b" transform="matrix(1,0,0,1,-47.999999999999886,56.265625) translate(0 130.46614583333334)"/><use xlink:href="#I" transform="matrix(1,0,0,1,-47.999999999999886,56.265625) translate(25.143229166666668 130.46614583333334)"/><use xlink:href="#G" transform="matrix(1,0,0,1,-47.999999999999886,56.265625) translate(249.79166666666663 130.46614583333334)"/><use xlink:href="#b" transform="matrix(1,0,0,1,-47.999999999999886,56.265625) translate(0 162.73177083333334)"/><use xlink:href="#J" transform="matrix(1,0,0,1,-47.999999999999886,56.265625) translate(25.143229166666668 162.73177083333334)"/><use xlink:href="#K" transform="matrix(1,0,0,1,-47.999999999999886,56.265625) translate(235.39062500000003 162.73177083333334)"/></g><path d="M-296.53-38.5h44.58a6 6 0 0 1 6 6V996.34a6 6 0 0 0 6 6H-62.5" stroke="#3a414a" stroke-width="3" fill="none"/><path d="M-337-38.5l38.97-22.5v45z" stroke="#3a414a" stroke-width="3" fill="#fff"/><path d="M-61 1003.82h-1.54v-2.96H-61z" stroke="#3a414a" stroke-width=".05" fill="#3a414a"/><path d="M-1003.47-38.5H-1034a6 6 0 0 0-6 6v1050.34a6 6 0 0 1-6 6h-191.5" stroke="#3a414a" stroke-width="3" fill="none"/><path d="M-963-38.5l-38.97 22.5v-45z" stroke="#3a414a" stroke-width="3" fill="#fff"/><path d="M-1237.46 1025.32h-1.54v-2.95h1.54z" stroke="#3a414a" stroke-width=".05" fill="#3a414a"/><defs><path d="M783 20c-382 0-661-292-661-764 0-473 279-766 661-766 302 0 548 182 601 489h-190c-42-204-217-313-411-313-268 0-476 208-476 590 0 381 209 588 476 588 195 0 369-110 411-313h190c-52 303-296 489-601 489" id="Q"/><path d="M338-670V0H158v-1490h180v566c73-149 190-208 336-208 226 0 379 139 379 422V0H872v-695c0-172-96-275-252-275-161 0-282 109-282 300" id="R"/><path d="M471 26C259 26 90-98 90-318c0-256 228-303 435-329 202-27 287-16 287-108 0-139-79-219-234-219-161 0-248 86-283 164l-173-57c86-203 278-265 451-265 150 0 419 46 419 395V0H815v-152h-12C765-73 660 26 471 26zm31-159c199 0 310-134 310-271v-155c-30 35-226 55-295 64-131 17-246 59-246 186 0 116 97 176 231 176" id="S"/><path d="M158 0v-1118h174v172h12c41-113 157-188 290-188 26 0 70 2 91 3v181c-11-2-60-10-108-10-161 0-279 109-279 260V0H158" id="T"/><path d="M613 24c-304 0-509-231-509-576 0-350 205-580 509-580 216 0 392 114 453 309l-173 49c-33-115-133-197-280-197-223 0-326 196-326 419 0 220 103 415 326 415 150 0 252-85 285-206l172 49C1010-95 832 24 613 24" id="U"/><path d="M598-1118v154H368v674c0 100 37 144 132 144 23 0 62-6 92-12L629-6c-37 13-88 20-134 20-193 0-307-107-307-290v-688H20v-154h168v-266h180v266h230" id="V"/><path d="M628 24c-324 0-524-230-524-574 0-343 198-582 503-582 237 0 487 146 487 559v75H286c9 234 145 362 343 362 132 0 231-58 273-172l174 48C1024-91 857 24 628 24zM287-650h624c-17-190-120-322-304-322-192 0-309 151-320 322" id="W"/><g id="a"><use transform="matrix(0.013020833333333334,0,0,0.013020833333333334,0,0)" xlink:href="#Q"/><use transform="matrix(0.013020833333333334,0,0,0.013020833333333334,19.479166666666668,0)" xlink:href="#R"/><use transform="matrix(0.013020833333333334,0,0,0.013020833333333334,35.247395833333336,0)" xlink:href="#S"/><use transform="matrix(0.013020833333333334,0,0,0.013020833333333334,50.22135416666667,0)" xlink:href="#T"/><use transform="matrix(0.013020833333333334,0,0,0.013020833333333334,60.26041666666667,0)" xlink:href="#S"/><use transform="matrix(0.013020833333333334,0,0,0.013020833333333334,75.234375,0)" xlink:href="#U"/><use transform="matrix(0.013020833333333334,0,0,0.013020833333333334,90.46875,0)" xlink:href="#V"/><use transform="matrix(0.013020833333333334,0,0,0.013020833333333334,98.93229166666666,0)" xlink:href="#W"/><use transform="matrix(0.013020833333333334,0,0,0.013020833333333334,114.47916666666664,0)" xlink:href="#T"/></g><path d="M593-100v-404H195v-159h398v-403h169v403h398v159H762v404H593" id="X"/><g id="b"><use transform="matrix(0.013020833333333334,0,0,0.013020833333333334,0,0)" xlink:href="#X"/><path d="M-1.33 5.44h27.8v1.82h-27.8z"/></g><path d="M481 0L54-1118h197c107 314 236 620 325 951 87-331 217-637 324-951h197L670 0H481" id="Y"/><path d="M338-1490V0H158v-1490h180" id="Z"/><path d="M158 0v-1118h180V0H158zm91-1301c-68 0-125-53-125-119s57-119 125-119c69 0 126 53 126 119s-57 119-126 119" id="aa"/><path d="M577 24c-279 0-473-224-473-580 0-354 195-576 474-576 218 0 287 134 324 193h14v-551h180V0H922v-173h-20C865-111 790 24 577 24zm27-161c203 0 314-172 314-421 0-247-108-413-314-413-212 0-317 181-317 413 0 235 108 421 317 421" id="ab"/><path d="M52 0l541-1490h220L1361 0h-200l-149-416H398L254 0H52zm404-582h497c-103-290-145-390-251-756-108 377-145 460-246 756" id="ac"/><path d="M613 24c-304 0-509-231-509-576 0-350 205-580 509-580 305 0 511 230 511 580 0 345-206 576-511 576zm0-161c226 0 329-195 329-415 0-222-103-419-329-419-223 0-326 196-326 419 0 220 103 415 326 415" id="ad"/><path d="M338-670V0H158v-1118h173l1 207c72-158 192-221 342-221 226 0 378 139 378 422V0H872v-695c0-172-96-275-252-275-161 0-282 109-282 300" id="ae"/><path d="M538 24C308 24 148-78 108-271l171-41c32 123 123 178 257 178 156 0 256-77 256-169 0-77-54-128-164-154l-186-44c-203-48-300-148-300-305 0-192 176-326 414-326 230 0 351 112 402 269l-163 42c-31-80-94-158-238-158-133 0-233 69-233 162 0 83 57 129 188 160l169 40c203 48 298 149 298 302 0 196-179 339-441 339" id="af"/><path d="M295 13c-75 0-135-60-135-135s60-135 135-135 135 60 135 135S370 13 295 13zm0-809c-75 0-135-60-135-135s60-135 135-135 135 60 135 135-60 135-135 135" id="ag"/><g id="c"><use transform="matrix(0.013020833333333334,0,0,0.013020833333333334,0,0)" xlink:href="#Y"/><use transform="matrix(0.013020833333333334,0,0,0.013020833333333334,14.856770833333334,0)" xlink:href="#S"/><use transform="matrix(0.013020833333333334,0,0,0.013020833333333334,29.830729166666668,0)" xlink:href="#Z"/><use transform="matrix(0.013020833333333334,0,0,0.013020833333333334,36.2890625,0)" xlink:href="#aa"/><use transform="matrix(0.013020833333333334,0,0,0.013020833333333334,42.747395833333336,0)" xlink:href="#ab"/><use transform="matrix(0.013020833333333334,0,0,0.013020833333333334,59.075520833333336,0)" xlink:href="#ac"/><use transform="matrix(0.013020833333333334,0,0,0.013020833333333334,77.47395833333334,0)" xlink:href="#U"/><use transform="matrix(0.013020833333333334,0,0,0.013020833333333334,92.70833333333334,0)" xlink:href="#V"/><use transform="matrix(0.013020833333333334,0,0,0.013020833333333334,101.43229166666667,0)" xlink:href="#aa"/><use transform="matrix(0.013020833333333334,0,0,0.013020833333333334,107.890625,0)" xlink:href="#ad"/><use transform="matrix(0.013020833333333334,0,0,0.013020833333333334,123.88020833333334,0)" xlink:href="#ae"/><use transform="matrix(0.013020833333333334,0,0,0.013020833333333334,139.63541666666666,0)" xlink:href="#af"/><use transform="matrix(0.013020833333333334,0,0,0.013020833333333334,153.7109375,0)" xlink:href="#ag"/><path d="M-1.33 5.44h171.56v1.82H-1.33z"/></g><path d="M226 279v-1860h398v153H398V126h226v153H226" id="ah"/><path d="M657 26c-323 0-524-166-541-416h195c15 169 171 246 346 246 202 0 356-106 356-265 5-203-294-238-475-293-239-73-380-191-380-389 0-252 224-419 512-419 294 0 499 171 508 396H992c-17-145-151-228-328-228-193 0-321 102-321 242 0 156 175 211 284 241l149 41c160 44 422 134 422 412 0 244-197 432-541 432" id="ai"/><path d="M611 442c-248 0-391-105-460-228l146-94c47 65 117 165 314 165 178 0 307-82 307-266v-224h-17C863-141 792-18 576-18c-268 0-472-195-472-546 0-346 197-568 476-568 216 0 288 133 326 193h17v-179h175V29c0 289-215 413-487 413zm-5-620c203 0 314-146 314-390 0-237-108-403-314-403-213 0-319 180-319 403 0 230 109 390 319 390" id="aj"/><path d="M123 279V126h226v-1554H123v-153h398V279H123" id="ak"/><g id="d"><use transform="matrix(0.013020833333333334,0,0,0.013020833333333334,0,0)" xlink:href="#ah"/><use transform="matrix(0.013020833333333334,0,0,0.013020833333333334,9.7265625,0)" xlink:href="#ai"/><use transform="matrix(0.013020833333333334,0,0,0.013020833333333334,26.8359375,0)" xlink:href="#V"/><use transform="matrix(0.013020833333333334,0,0,0.013020833333333334,35.559895833333336,0)" xlink:href="#T"/><use transform="matrix(0.013020833333333334,0,0,0.013020833333333334,46.015625,0)" xlink:href="#aa"/><use transform="matrix(0.013020833333333334,0,0,0.013020833333333334,52.473958333333336,0)" xlink:href="#ae"/><use transform="matrix(0.013020833333333334,0,0,0.013020833333333334,68.22916666666667,0)" xlink:href="#aj"/><use transform="matrix(0.013020833333333334,0,0,0.013020833333333334,84.58333333333334,0)" xlink:href="#ak"/><path d="M-1.33 5.44h96.98v1.82H-1.33z"/></g><use transform="matrix(0.013020833333333334,0,0,0.013020833333333334,0,0)" xlink:href="#X" id="e"/><path d="M158 0v-1118h175l1 205c55-151 181-225 313-225 147 0 245 90 285 228 53-141 190-228 352-228 194 0 352 125 352 384V0h-181v-749c0-161-105-225-225-225-151 0-243 103-243 244V0H807v-767c0-124-93-207-219-207-131 0-250 92-250 270V0H158" id="al"/><g id="f"><use transform="matrix(0.013020833333333334,0,0,0.013020833333333334,0,0)" xlink:href="#ae"/><use transform="matrix(0.013020833333333334,0,0,0.013020833333333334,15.755208333333334,0)" xlink:href="#S"/><use transform="matrix(0.013020833333333334,0,0,0.013020833333333334,30.729166666666668,0)" xlink:href="#al"/><use transform="matrix(0.013020833333333334,0,0,0.013020833333333334,54.08854166666667,0)" xlink:href="#W"/><use transform="matrix(0.013020833333333334,0,0,0.013020833333333334,69.63541666666667,0)" xlink:href="#ag"/></g><g id="g"><use transform="matrix(0.013020833333333334,0,0,0.013020833333333334,0,0)" xlink:href="#ai"/><use transform="matrix(0.013020833333333334,0,0,0.013020833333333334,17.109375,0)" xlink:href="#V"/><use transform="matrix(0.013020833333333334,0,0,0.013020833333333334,25.833333333333336,0)" xlink:href="#T"/><use transform="matrix(0.013020833333333334,0,0,0.013020833333333334,36.2890625,0)" xlink:href="#aa"/><use transform="matrix(0.013020833333333334,0,0,0.013020833333333334,42.747395833333336,0)" xlink:href="#ae"/><use transform="matrix(0.013020833333333334,0,0,0.013020833333333334,58.50260416666667,0)" xlink:href="#aj"/></g><path d="M140 405l46-156c120 36 205 19 263-150l32-93L54-1118h197c107 313 237 620 324 950 87-331 219-637 326-950h196L606 167c-68 178-176 259-334 259-64 0-113-12-132-21" id="am"/><path d="M158 418v-1536h174v179h20c37-59 106-193 324-193 279 0 474 222 474 576 0 356-194 580-473 580-213 0-288-135-325-197h-14v591H158zm492-555c209 0 317-186 317-421 0-232-105-413-317-413-206 0-314 166-314 413 0 249 111 421 314 421" id="an"/><g id="h"><use transform="matrix(0.013020833333333334,0,0,0.013020833333333334,0,0)" xlink:href="#V"/><use transform="matrix(0.013020833333333334,0,0,0.013020833333333334,9.244791666666668,0)" xlink:href="#am"/><use transform="matrix(0.013020833333333334,0,0,0.013020833333333334,24.231770833333336,0)" xlink:href="#an"/><use transform="matrix(0.013020833333333334,0,0,0.013020833333333334,40.559895833333336,0)" xlink:href="#W"/><use transform="matrix(0.013020833333333334,0,0,0.013020833333333334,56.106770833333336,0)" xlink:href="#ag"/></g><path d="M158 0v-1490h180v865h22l478-493h223L593-638 1096 0H865L456-523 338-412V0H158" id="ao"/><g id="i"><use transform="matrix(0.013020833333333334,0,0,0.013020833333333334,0,0)" xlink:href="#S"/><use transform="matrix(0.013020833333333334,0,0,0.013020833333333334,14.973958333333334,0)" xlink:href="#V"/><use transform="matrix(0.013020833333333334,0,0,0.013020833333333334,23.046875,0)" xlink:href="#V"/><use transform="matrix(0.013020833333333334,0,0,0.013020833333333334,31.90104166666666,0)" xlink:href="#S"/><use transform="matrix(0.013020833333333334,0,0,0.013020833333333334,46.875,0)" xlink:href="#U"/><use transform="matrix(0.013020833333333334,0,0,0.013020833333333334,62.109375,0)" xlink:href="#ao"/><use transform="matrix(0.013020833333333334,0,0,0.013020833333333334,76.74479166666667,0)" xlink:href="#ai"/><use transform="matrix(0.013020833333333334,0,0,0.013020833333333334,93.85416666666667,0)" xlink:href="#V"/><use transform="matrix(0.013020833333333334,0,0,0.013020833333333334,102.578125,0)" xlink:href="#T"/><use transform="matrix(0.013020833333333334,0,0,0.013020833333333334,112.17447916666667,0)" xlink:href="#W"/><use transform="matrix(0.013020833333333334,0,0,0.013020833333333334,127.72135416666667,0)" xlink:href="#ae"/><use transform="matrix(0.013020833333333334,0,0,0.013020833333333334,143.4765625,0)" xlink:href="#aj"/><use transform="matrix(0.013020833333333334,0,0,0.013020833333333334,159.83072916666666,0)" xlink:href="#V"/><use transform="matrix(0.013020833333333334,0,0,0.013020833333333334,168.5546875,0)" xlink:href="#R"/><use transform="matrix(0.013020833333333334,0,0,0.013020833333333334,184.32291666666666,0)" xlink:href="#ag"/></g><path d="M180 0v-1490h224l606 953c40 63 108 177 176 312-27-437-7-821-13-1265h190V0h-226C860-448 622-778 356-1262c27 476 11 792 15 1262H180" id="ap"/><path d="M537 14c-226 0-379-139-379-422v-710h180v695c0 172 97 275 253 275 160 0 281-109 281-300v-670h181V0H879v-209C806-46 684 14 537 14" id="aq"/><path d="M677 24c-213 0-288-135-325-197h-20V0H158v-1490h180v551h14c37-59 106-193 324-193 279 0 474 222 474 576 0 356-194 580-473 580zm-27-161c209 0 317-186 317-421 0-232-105-413-317-413-206 0-314 166-314 413 0 249 111 421 314 421" id="ar"/><g id="j"><use transform="matrix(0.013020833333333334,0,0,0.013020833333333334,0,0)" xlink:href="#ap"/><use transform="matrix(0.013020833333333334,0,0,0.013020833333333334,20.091145833333336,0)" xlink:href="#aq"/><use transform="matrix(0.013020833333333334,0,0,0.013020833333333334,35.859375,0)" xlink:href="#al"/><use transform="matrix(0.013020833333333334,0,0,0.013020833333333334,59.21875,0)" xlink:href="#ar"/><use transform="matrix(0.013020833333333334,0,0,0.013020833333333334,75.546875,0)" xlink:href="#W"/><use transform="matrix(0.013020833333333334,0,0,0.013020833333333334,91.09375,0)" xlink:href="#T"/></g><path d="M678-1118v154H420V0H240v-964H20v-154h220v-149c0-194 155-293 318-293 85 0 141 18 168 30l-50 154c-19-6-47-17-97-17-111 0-159 58-159 166v109h258" id="as"/><g id="k"><use transform="matrix(0.013020833333333334,0,0,0.013020833333333334,0,0)" xlink:href="#ab"/><use transform="matrix(0.013020833333333334,0,0,0.013020833333333334,16.328125,0)" xlink:href="#W"/><use transform="matrix(0.013020833333333334,0,0,0.013020833333333334,31.875,0)" xlink:href="#as"/><use transform="matrix(0.013020833333333334,0,0,0.013020833333333334,40.96354166666667,0)" xlink:href="#W"/><use transform="matrix(0.013020833333333334,0,0,0.013020833333333334,56.51041666666667,0)" xlink:href="#ae"/><use transform="matrix(0.013020833333333334,0,0,0.013020833333333334,72.265625,0)" xlink:href="#af"/><use transform="matrix(0.013020833333333334,0,0,0.013020833333333334,86.34114583333333,0)" xlink:href="#W"/><use transform="matrix(0.013020833333333334,0,0,0.013020833333333334,101.88802083333333,0)" xlink:href="#ai"/><use transform="matrix(0.013020833333333334,0,0,0.013020833333333334,118.99739583333334,0)" xlink:href="#V"/><use transform="matrix(0.013020833333333334,0,0,0.013020833333333334,127.72135416666664,0)" xlink:href="#T"/><use transform="matrix(0.013020833333333334,0,0,0.013020833333333334,137.31770833333331,0)" xlink:href="#W"/><use transform="matrix(0.013020833333333334,0,0,0.013020833333333334,152.86458333333331,0)" xlink:href="#ae"/><use transform="matrix(0.013020833333333334,0,0,0.013020833333333334,168.61979166666666,0)" xlink:href="#aj"/><use transform="matrix(0.013020833333333334,0,0,0.013020833333333334,184.97395833333331,0)" xlink:href="#V"/><use transform="matrix(0.013020833333333334,0,0,0.013020833333333334,193.69791666666666,0)" xlink:href="#R"/><use transform="matrix(0.013020833333333334,0,0,0.013020833333333334,209.46614583333331,0)" xlink:href="#ag"/></g><path d="M65 0l393-574-370-544h210c88 136 192 297 267 435 67-142 176-302 264-435h206L661-564 1053 0H844c-94-144-206-310-287-458C484-308 366-142 273 0H65" id="at"/><path d="M180 0v-1490h190v644h782v-644h190V0h-190v-678H370V0H180" id="au"/><g id="l"><use transform="matrix(0.013020833333333334,0,0,0.013020833333333334,0,0)" xlink:href="#al"/><use transform="matrix(0.013020833333333334,0,0,0.013020833333333334,23.359375,0)" xlink:href="#S"/><use transform="matrix(0.013020833333333334,0,0,0.013020833333333334,38.333333333333336,0)" xlink:href="#at"/><use transform="matrix(0.013020833333333334,0,0,0.013020833333333334,52.890625,0)" xlink:href="#au"/><use transform="matrix(0.013020833333333334,0,0,0.013020833333333334,72.70833333333334,0)" xlink:href="#W"/><use transform="matrix(0.013020833333333334,0,0,0.013020833333333334,88.51562500000001,0)" xlink:href="#S"/><use transform="matrix(0.013020833333333334,0,0,0.013020833333333334,103.48958333333334,0)" xlink:href="#Z"/><use transform="matrix(0.013020833333333334,0,0,0.013020833333333334,110.33854166666667,0)" xlink:href="#V"/><use transform="matrix(0.013020833333333334,0,0,0.013020833333333334,119.0625,0)" xlink:href="#R"/><use transform="matrix(0.013020833333333334,0,0,0.013020833333333334,134.83072916666666,0)" xlink:href="#ag"/></g><g id="m"><use transform="matrix(0.013020833333333334,0,0,0.013020833333333334,0,0)" xlink:href="#R"/><use transform="matrix(0.013020833333333334,0,0,0.013020833333333334,15.768229166666668,0)" xlink:href="#W"/><use transform="matrix(0.013020833333333334,0,0,0.013020833333333334,31.575520833333336,0)" xlink:href="#S"/><use transform="matrix(0.013020833333333334,0,0,0.013020833333333334,46.54947916666667,0)" xlink:href="#Z"/><use transform="matrix(0.013020833333333334,0,0,0.013020833333333334,53.3984375,0)" xlink:href="#V"/><use transform="matrix(0.013020833333333334,0,0,0.013020833333333334,62.12239583333335,0)" xlink:href="#R"/><use transform="matrix(0.013020833333333334,0,0,0.013020833333333334,77.89062500000001,0)" xlink:href="#ag"/></g><g id="n"><use transform="matrix(0.013020833333333334,0,0,0.013020833333333334,0,0)" xlink:href="#S"/><use transform="matrix(0.013020833333333334,0,0,0.013020833333333334,14.973958333333334,0)" xlink:href="#U"/><use transform="matrix(0.013020833333333334,0,0,0.013020833333333334,30.208333333333336,0)" xlink:href="#V"/><use transform="matrix(0.013020833333333334,0,0,0.013020833333333334,38.93229166666667,0)" xlink:href="#aa"/><use transform="matrix(0.013020833333333334,0,0,0.013020833333333334,45.39062500000001,0)" xlink:href="#ad"/><use transform="matrix(0.013020833333333334,0,0,0.013020833333333334,61.38020833333335,0)" xlink:href="#ae"/><use transform="matrix(0.013020833333333334,0,0,0.013020833333333334,77.13541666666667,0)" xlink:href="#ag"/></g><g id="o"><use transform="matrix(0.013020833333333334,0,0,0.013020833333333334,0,0)" xlink:href="#ai"/><use transform="matrix(0.013020833333333334,0,0,0.013020833333333334,17.109375,0)" xlink:href="#V"/><use transform="matrix(0.013020833333333334,0,0,0.013020833333333334,25.833333333333336,0)" xlink:href="#T"/><use transform="matrix(0.013020833333333334,0,0,0.013020833333333334,36.2890625,0)" xlink:href="#aa"/><use transform="matrix(0.013020833333333334,0,0,0.013020833333333334,42.747395833333336,0)" xlink:href="#ae"/><use transform="matrix(0.013020833333333334,0,0,0.013020833333333334,58.50260416666667,0)" xlink:href="#aj"/></g><path d="M600 0L52-1490h200c166 485 304 806 458 1336 156-533 285-846 449-1336h202L819 0H600" id="av"/><path d="M218-607c0-325 108-727 258-974h175c-155 315-250 682-250 974 0 265 78 531 250 886H476C306-10 218-315 218-607" id="aw"/><path d="M96 279C273-86 346-350 346-607c0-292-95-659-250-974h175c150 246 258 650 258 974 0 297-91 602-258 886H96" id="ax"/><g id="p"><use transform="matrix(0.013020833333333334,0,0,0.013020833333333334,0,0)" xlink:href="#aa"/><use transform="matrix(0.013020833333333334,0,0,0.013020833333333334,6.458333333333334,0)" xlink:href="#af"/><use transform="matrix(0.013020833333333334,0,0,0.013020833333333334,19.322916666666668,0)" xlink:href="#av"/><use transform="matrix(0.013020833333333334,0,0,0.013020833333333334,36.3671875,0)" xlink:href="#S"/><use transform="matrix(0.013020833333333334,0,0,0.013020833333333334,51.341145833333336,0)" xlink:href="#Z"/><use transform="matrix(0.013020833333333334,0,0,0.013020833333333334,57.79947916666667,0)" xlink:href="#aa"/><use transform="matrix(0.013020833333333334,0,0,0.013020833333333334,64.2578125,0)" xlink:href="#ab"/><use transform="matrix(0.013020833333333334,0,0,0.013020833333333334,80.5859375,0)" xlink:href="#ac"/><use transform="matrix(0.013020833333333334,0,0,0.013020833333333334,98.984375,0)" xlink:href="#U"/><use transform="matrix(0.013020833333333334,0,0,0.013020833333333334,114.21875,0)" xlink:href="#V"/><use transform="matrix(0.013020833333333334,0,0,0.013020833333333334,122.94270833333334,0)" xlink:href="#aa"/><use transform="matrix(0.013020833333333334,0,0,0.013020833333333334,129.40104166666666,0)" xlink:href="#ad"/><use transform="matrix(0.013020833333333334,0,0,0.013020833333333334,145.390625,0)" xlink:href="#ae"/><use transform="matrix(0.013020833333333334,0,0,0.013020833333333334,161.14583333333334,0)" xlink:href="#aw"/><use transform="matrix(0.013020833333333334,0,0,0.013020833333333334,170.87239583333334,0)" xlink:href="#ai"/><use transform="matrix(0.013020833333333334,0,0,0.013020833333333334,187.98177083333334,0)" xlink:href="#V"/><use transform="matrix(0.013020833333333334,0,0,0.013020833333333334,196.70572916666669,0)" xlink:href="#T"/><use transform="matrix(0.013020833333333334,0,0,0.013020833333333334,207.16145833333334,0)" xlink:href="#aa"/><use transform="matrix(0.013020833333333334,0,0,0.013020833333333334,213.61979166666669,0)" xlink:href="#ae"/><use transform="matrix(0.013020833333333334,0,0,0.013020833333333334,229.375,0)" xlink:href="#aj"/><use transform="matrix(0.013020833333333334,0,0,0.013020833333333334,245.72916666666669,0)" xlink:href="#ax"/><use transform="matrix(0.013020833333333334,0,0,0.013020833333333334,255.45572916666669,0)" xlink:href="#ag"/><path d="M-1.33 5.44h273.3v1.82H-1.33z"/></g><path d="M180 0v-1490h528c311 0 458 177 458 395 0 191-114 278-244 313v14c139 9 302 137 302 371 0 225-148 397-499 397H180zm190-168h350c232 0 321-102 321-231 0-149-120-277-311-277H370v508zm0-668h328c160 0 286-101 286-255 0-129-87-231-280-231H370v486" id="ay"/><g id="q"><use transform="matrix(0.013020833333333334,0,0,0.013020833333333334,0,0)" xlink:href="#ay"/><use transform="matrix(0.013020833333333334,0,0,0.013020833333333334,17.447916666666668,0)" xlink:href="#ad"/><use transform="matrix(0.013020833333333334,0,0,0.013020833333333334,33.4375,0)" xlink:href="#ad"/><use transform="matrix(0.013020833333333334,0,0,0.013020833333333334,49.427083333333336,0)" xlink:href="#Z"/><use transform="matrix(0.013020833333333334,0,0,0.013020833333333334,55.88541666666667,0)" xlink:href="#W"/><use transform="matrix(0.013020833333333334,0,0,0.013020833333333334,71.69270833333334,0)" xlink:href="#S"/><use transform="matrix(0.013020833333333334,0,0,0.013020833333333334,86.66666666666667,0)" xlink:href="#ae"/><path d="M-1.33 5.44h105.1v1.82H-1.34z"/></g><path d="M180 0v-1490h510c348 0 508 194 508 460 0 198-88 351-276 417L1256 0h-220L726-579c-117 2-238 0-356 1V0H180zm190-747h312c235 0 327-108 327-283 0-177-92-293-329-293H370v576" id="az"/><g id="r"><use transform="matrix(0.013020833333333334,0,0,0.013020833333333334,0,0)" xlink:href="#aj"/><use transform="matrix(0.013020833333333334,0,0,0.013020833333333334,16.354166666666668,0)" xlink:href="#W"/><use transform="matrix(0.013020833333333334,0,0,0.013020833333333334,31.901041666666668,0)" xlink:href="#V"/><use transform="matrix(0.013020833333333334,0,0,0.013020833333333334,40.625,0)" xlink:href="#az"/><use transform="matrix(0.013020833333333334,0,0,0.013020833333333334,57.65625,0)" xlink:href="#S"/><use transform="matrix(0.013020833333333334,0,0,0.013020833333333334,72.63020833333333,0)" xlink:href="#ae"/><use transform="matrix(0.013020833333333334,0,0,0.013020833333333334,88.38541666666666,0)" xlink:href="#ab"/><use transform="matrix(0.013020833333333334,0,0,0.013020833333333334,104.71354166666666,0)" xlink:href="#ad"/><use transform="matrix(0.013020833333333334,0,0,0.013020833333333334,120.70312499999999,0)" xlink:href="#al"/><use transform="matrix(0.013020833333333334,0,0,0.013020833333333334,144.0625,0)" xlink:href="#ac"/><use transform="matrix(0.013020833333333334,0,0,0.013020833333333334,162.4609375,0)" xlink:href="#U"/><use transform="matrix(0.013020833333333334,0,0,0.013020833333333334,177.6953125,0)" xlink:href="#V"/><use transform="matrix(0.013020833333333334,0,0,0.013020833333333334,186.41927083333334,0)" xlink:href="#aa"/><use transform="matrix(0.013020833333333334,0,0,0.013020833333333334,192.87760416666669,0)" xlink:href="#ad"/><use transform="matrix(0.013020833333333334,0,0,0.013020833333333334,208.86718750000003,0)" xlink:href="#ae"/><use transform="matrix(0.013020833333333334,0,0,0.013020833333333334,224.6223958333334,0)" xlink:href="#aw"/><use transform="matrix(0.013020833333333334,0,0,0.013020833333333334,234.3489583333334,0)" xlink:href="#ax"/><use transform="matrix(0.013020833333333334,0,0,0.013020833333333334,244.0755208333334,0)" xlink:href="#ag"/><path d="M-1.33 5.44H260.6v1.82H-1.34z"/></g><g id="s"><use transform="matrix(0.013020833333333334,0,0,0.013020833333333334,0,0)" xlink:href="#ai"/><use transform="matrix(0.013020833333333334,0,0,0.013020833333333334,17.109375,0)" xlink:href="#V"/><use transform="matrix(0.013020833333333334,0,0,0.013020833333333334,25.833333333333336,0)" xlink:href="#T"/><use transform="matrix(0.013020833333333334,0,0,0.013020833333333334,36.2890625,0)" xlink:href="#aa"/><use transform="matrix(0.013020833333333334,0,0,0.013020833333333334,42.747395833333336,0)" xlink:href="#ae"/><use transform="matrix(0.013020833333333334,0,0,0.013020833333333334,58.50260416666667,0)" xlink:href="#aj"/><path d="M-1.33 5.44H76.2v1.82H-1.34z"/></g><path d="M645 0H180v-1490h484c435 0 692 280 692 742 0 466-257 748-711 748zM370-168h263c363 0 539-218 539-580 0-358-176-574-521-574H370v1154" id="aA"/><g id="t"><use transform="matrix(0.013020833333333334,0,0,0.013020833333333334,0,0)" xlink:href="#an"/><use transform="matrix(0.013020833333333334,0,0,0.013020833333333334,16.328125,0)" xlink:href="#T"/><use transform="matrix(0.013020833333333334,0,0,0.013020833333333334,26.783854166666668,0)" xlink:href="#aa"/><use transform="matrix(0.013020833333333334,0,0,0.013020833333333334,33.2421875,0)" xlink:href="#ae"/><use transform="matrix(0.013020833333333334,0,0,0.013020833333333334,48.997395833333336,0)" xlink:href="#V"/><use transform="matrix(0.013020833333333334,0,0,0.013020833333333334,57.72135416666667,0)" xlink:href="#aA"/><use transform="matrix(0.013020833333333334,0,0,0.013020833333333334,76.96614583333334,0)" xlink:href="#W"/><use transform="matrix(0.013020833333333334,0,0,0.013020833333333334,92.51302083333334,0)" xlink:href="#af"/><use transform="matrix(0.013020833333333334,0,0,0.013020833333333334,106.58854166666667,0)" xlink:href="#U"/><use transform="matrix(0.013020833333333334,0,0,0.013020833333333334,121.82291666666667,0)" xlink:href="#T"/><use transform="matrix(0.013020833333333334,0,0,0.013020833333333334,132.27864583333334,0)" xlink:href="#aa"/><use transform="matrix(0.013020833333333334,0,0,0.013020833333333334,138.73697916666669,0)" xlink:href="#an"/><use transform="matrix(0.013020833333333334,0,0,0.013020833333333334,155.06510416666669,0)" xlink:href="#V"/><use transform="matrix(0.013020833333333334,0,0,0.013020833333333334,163.78906250000003,0)" xlink:href="#aa"/><use transform="matrix(0.013020833333333334,0,0,0.013020833333333334,170.24739583333337,0)" xlink:href="#ad"/><use transform="matrix(0.013020833333333334,0,0,0.013020833333333334,186.2369791666667,0)" xlink:href="#ae"/><use transform="matrix(0.013020833333333334,0,0,0.013020833333333334,201.99218750000006,0)" xlink:href="#aw"/><use transform="matrix(0.013020833333333334,0,0,0.013020833333333334,211.71875000000006,0)" xlink:href="#Q"/><use transform="matrix(0.013020833333333334,0,0,0.013020833333333334,231.1979166666667,0)" xlink:href="#R"/><use transform="matrix(0.013020833333333334,0,0,0.013020833333333334,246.9661458333334,0)" xlink:href="#S"/><use transform="matrix(0.013020833333333334,0,0,0.013020833333333334,261.9401041666667,0)" xlink:href="#T"/><use transform="matrix(0.013020833333333334,0,0,0.013020833333333334,271.9791666666667,0)" xlink:href="#S"/><use transform="matrix(0.013020833333333334,0,0,0.013020833333333334,286.953125,0)" xlink:href="#U"/><use transform="matrix(0.013020833333333334,0,0,0.013020833333333334,302.1875,0)" xlink:href="#V"/><use transform="matrix(0.013020833333333334,0,0,0.013020833333333334,310.65104166666663,0)" xlink:href="#W"/><use transform="matrix(0.013020833333333334,0,0,0.013020833333333334,326.19791666666663,0)" xlink:href="#T"/><use transform="matrix(0.013020833333333334,0,0,0.013020833333333334,336.23697916666663,0)" xlink:href="#ax"/><path d="M-1.33 5.44H347.3v1.82H-1.33z"/></g><path d="M128 359l88-567h206L266 359H128" id="aB"/><g id="u"><use transform="matrix(0.013020833333333334,0,0,0.013020833333333334,0,0)" xlink:href="#U"/><use transform="matrix(0.013020833333333334,0,0,0.013020833333333334,15.494791666666668,0)" xlink:href="#S"/><use transform="matrix(0.013020833333333334,0,0,0.013020833333333334,30.46875,0)" xlink:href="#Z"/><use transform="matrix(0.013020833333333334,0,0,0.013020833333333334,36.927083333333336,0)" xlink:href="#U"/><use transform="matrix(0.013020833333333334,0,0,0.013020833333333334,52.161458333333336,0)" xlink:href="#aq"/><use transform="matrix(0.013020833333333334,0,0,0.013020833333333334,67.9296875,0)" xlink:href="#Z"/><use transform="matrix(0.013020833333333334,0,0,0.013020833333333334,74.38802083333333,0)" xlink:href="#S"/><use transform="matrix(0.013020833333333334,0,0,0.013020833333333334,89.36197916666666,0)" xlink:href="#V"/><use transform="matrix(0.013020833333333334,0,0,0.013020833333333334,97.82552083333331,0)" xlink:href="#W"/><use transform="matrix(0.013020833333333334,0,0,0.013020833333333334,113.37239583333331,0)" xlink:href="#aA"/><use transform="matrix(0.013020833333333334,0,0,0.013020833333333334,132.61718749999997,0)" xlink:href="#S"/><use transform="matrix(0.013020833333333334,0,0,0.013020833333333334,147.59114583333331,0)" xlink:href="#al"/><use transform="matrix(0.013020833333333334,0,0,0.013020833333333334,170.95052083333331,0)" xlink:href="#S"/><use transform="matrix(0.013020833333333334,0,0,0.013020833333333334,185.92447916666666,0)" xlink:href="#aj"/><use transform="matrix(0.013020833333333334,0,0,0.013020833333333334,202.27864583333331,0)" xlink:href="#W"/><use transform="matrix(0.013020833333333334,0,0,0.013020833333333334,217.8255208333333,0)" xlink:href="#aw"/><use transform="matrix(0.013020833333333334,0,0,0.013020833333333334,227.5520833333333,0)" xlink:href="#Q"/><use transform="matrix(0.013020833333333334,0,0,0.013020833333333334,247.03124999999997,0)" xlink:href="#R"/><use transform="matrix(0.013020833333333334,0,0,0.013020833333333334,262.79947916666663,0)" xlink:href="#S"/><use transform="matrix(0.013020833333333334,0,0,0.013020833333333334,277.77343749999994,0)" xlink:href="#T"/><use transform="matrix(0.013020833333333334,0,0,0.013020833333333334,287.81249999999994,0)" xlink:href="#S"/><use transform="matrix(0.013020833333333334,0,0,0.013020833333333334,302.78645833333326,0)" xlink:href="#U"/><use transform="matrix(0.013020833333333334,0,0,0.013020833333333334,318.02083333333326,0)" xlink:href="#V"/><use transform="matrix(0.013020833333333334,0,0,0.013020833333333334,326.4843749999999,0)" xlink:href="#W"/><use transform="matrix(0.013020833333333334,0,0,0.013020833333333334,342.0312499999999,0)" xlink:href="#T"/><use transform="matrix(0.013020833333333334,0,0,0.013020833333333334,350.4036458333332,0)" xlink:href="#aB"/><path d="M-1.33 5.44h368.25v1.82H-1.33z"/></g><g id="v"><use transform="matrix(0.013020833333333334,0,0,0.013020833333333334,0,0)" xlink:href="#Q"/><use transform="matrix(0.013020833333333334,0,0,0.013020833333333334,19.479166666666668,0)" xlink:href="#R"/><use transform="matrix(0.013020833333333334,0,0,0.013020833333333334,35.247395833333336,0)" xlink:href="#S"/><use transform="matrix(0.013020833333333334,0,0,0.013020833333333334,50.22135416666667,0)" xlink:href="#T"/><use transform="matrix(0.013020833333333334,0,0,0.013020833333333334,60.26041666666667,0)" xlink:href="#S"/><use transform="matrix(0.013020833333333334,0,0,0.013020833333333334,75.234375,0)" xlink:href="#U"/><use transform="matrix(0.013020833333333334,0,0,0.013020833333333334,90.46875,0)" xlink:href="#V"/><use transform="matrix(0.013020833333333334,0,0,0.013020833333333334,98.93229166666666,0)" xlink:href="#W"/><use transform="matrix(0.013020833333333334,0,0,0.013020833333333334,114.47916666666664,0)" xlink:href="#T"/><use transform="matrix(0.013020833333333334,0,0,0.013020833333333334,124.51822916666664,0)" xlink:href="#ax"/><path d="M-1.33 5.44h136.9v1.82H-1.32z"/></g><g id="w"><use transform="matrix(0.013020833333333334,0,0,0.013020833333333334,0,0)" xlink:href="#T"/><use transform="matrix(0.013020833333333334,0,0,0.013020833333333334,9.596354166666666,0)" xlink:href="#W"/><use transform="matrix(0.013020833333333334,0,0,0.013020833333333334,25.143229166666664,0)" xlink:href="#af"/><use transform="matrix(0.013020833333333334,0,0,0.013020833333333334,39.21875,0)" xlink:href="#V"/><use transform="matrix(0.013020833333333334,0,0,0.013020833333333334,47.68229166666667,0)" xlink:href="#ad"/><use transform="matrix(0.013020833333333334,0,0,0.013020833333333334,63.671875,0)" xlink:href="#T"/><use transform="matrix(0.013020833333333334,0,0,0.013020833333333334,73.26822916666667,0)" xlink:href="#W"/><use transform="matrix(0.013020833333333334,0,0,0.013020833333333334,88.81510416666667,0)" xlink:href="#au"/><use transform="matrix(0.013020833333333334,0,0,0.013020833333333334,108.6328125,0)" xlink:href="#W"/><use transform="matrix(0.013020833333333334,0,0,0.013020833333333334,124.44010416666667,0)" xlink:href="#S"/><use transform="matrix(0.013020833333333334,0,0,0.013020833333333334,139.4140625,0)" xlink:href="#Z"/><use transform="matrix(0.013020833333333334,0,0,0.013020833333333334,146.26302083333334,0)" xlink:href="#V"/><use transform="matrix(0.013020833333333334,0,0,0.013020833333333334,154.98697916666669,0)" xlink:href="#R"/><use transform="matrix(0.013020833333333334,0,0,0.013020833333333334,170.75520833333334,0)" xlink:href="#aw"/><use transform="matrix(0.013020833333333334,0,0,0.013020833333333334,180.48177083333334,0)" xlink:href="#ax"/></g><g id="x"><use transform="matrix(0.013020833333333334,0,0,0.013020833333333334,0,0)" xlink:href="#T"/><use transform="matrix(0.013020833333333334,0,0,0.013020833333333334,9.596354166666666,0)" xlink:href="#W"/><use transform="matrix(0.013020833333333334,0,0,0.013020833333333334,25.143229166666664,0)" xlink:href="#af"/><use transform="matrix(0.013020833333333334,0,0,0.013020833333333334,39.21875,0)" xlink:href="#W"/><use transform="matrix(0.013020833333333334,0,0,0.013020833333333334,54.765625,0)" xlink:href="#V"/><use transform="matrix(0.013020833333333334,0,0,0.013020833333333334,63.489583333333336,0)" xlink:href="#ac"/><use transform="matrix(0.013020833333333334,0,0,0.013020833333333334,81.88802083333334,0)" xlink:href="#U"/><use transform="matrix(0.013020833333333334,0,0,0.013020833333333334,97.12239583333334,0)" xlink:href="#V"/><use transform="matrix(0.013020833333333334,0,0,0.013020833333333334,105.84635416666667,0)" xlink:href="#aa"/><use transform="matrix(0.013020833333333334,0,0,0.013020833333333334,112.3046875,0)" xlink:href="#ad"/><use transform="matrix(0.013020833333333334,0,0,0.013020833333333334,128.29427083333334,0)" xlink:href="#ae"/><use transform="matrix(0.013020833333333334,0,0,0.013020833333333334,144.04947916666669,0)" xlink:href="#aw"/><use transform="matrix(0.013020833333333334,0,0,0.013020833333333334,153.77604166666669,0)" xlink:href="#ax"/></g><g id="y"><use transform="matrix(0.013020833333333334,0,0,0.013020833333333334,0,0)" xlink:href="#af"/><use transform="matrix(0.013020833333333334,0,0,0.013020833333333334,14.075520833333334,0)" xlink:href="#W"/><use transform="matrix(0.013020833333333334,0,0,0.013020833333333334,29.622395833333336,0)" xlink:href="#V"/><use transform="matrix(0.013020833333333334,0,0,0.013020833333333334,38.34635416666667,0)" xlink:href="#ac"/><use transform="matrix(0.013020833333333334,0,0,0.013020833333333334,56.74479166666667,0)" xlink:href="#U"/><use transform="matrix(0.013020833333333334,0,0,0.013020833333333334,71.97916666666667,0)" xlink:href="#V"/><use transform="matrix(0.013020833333333334,0,0,0.013020833333333334,80.703125,0)" xlink:href="#aa"/><use transform="matrix(0.013020833333333334,0,0,0.013020833333333334,87.16145833333333,0)" xlink:href="#ad"/><use transform="matrix(0.013020833333333334,0,0,0.013020833333333334,103.15104166666666,0)" xlink:href="#ae"/><use transform="matrix(0.013020833333333334,0,0,0.013020833333333334,118.90624999999999,0)" xlink:href="#aw"/><use transform="matrix(0.013020833333333334,0,0,0.013020833333333334,128.6328125,0)" xlink:href="#ai"/><use transform="matrix(0.013020833333333334,0,0,0.013020833333333334,145.7421875,0)" xlink:href="#V"/><use transform="matrix(0.013020833333333334,0,0,0.013020833333333334,154.46614583333334,0)" xlink:href="#T"/><use transform="matrix(0.013020833333333334,0,0,0.013020833333333334,164.921875,0)" xlink:href="#aa"/><use transform="matrix(0.013020833333333334,0,0,0.013020833333333334,171.38020833333334,0)" xlink:href="#ae"/><use transform="matrix(0.013020833333333334,0,0,0.013020833333333334,187.13541666666669,0)" xlink:href="#aj"/><use transform="matrix(0.013020833333333334,0,0,0.013020833333333334,203.48958333333334,0)" xlink:href="#ax"/></g><g id="z"><use transform="matrix(0.013020833333333334,0,0,0.013020833333333334,0,0)" xlink:href="#S"/><use transform="matrix(0.013020833333333334,0,0,0.013020833333333334,14.973958333333334,0)" xlink:href="#V"/><use transform="matrix(0.013020833333333334,0,0,0.013020833333333334,23.046875,0)" xlink:href="#V"/><use transform="matrix(0.013020833333333334,0,0,0.013020833333333334,31.90104166666666,0)" xlink:href="#S"/><use transform="matrix(0.013020833333333334,0,0,0.013020833333333334,46.875,0)" xlink:href="#U"/><use transform="matrix(0.013020833333333334,0,0,0.013020833333333334,62.109375,0)" xlink:href="#ao"/><use transform="matrix(0.013020833333333334,0,0,0.013020833333333334,76.74479166666667,0)" xlink:href="#aw"/><use transform="matrix(0.013020833333333334,0,0,0.013020833333333334,86.47135416666667,0)" xlink:href="#Q"/><use transform="matrix(0.013020833333333334,0,0,0.013020833333333334,105.95052083333334,0)" xlink:href="#R"/><use transform="matrix(0.013020833333333334,0,0,0.013020833333333334,121.71875,0)" xlink:href="#S"/><use transform="matrix(0.013020833333333334,0,0,0.013020833333333334,136.69270833333334,0)" xlink:href="#T"/><use transform="matrix(0.013020833333333334,0,0,0.013020833333333334,146.73177083333334,0)" xlink:href="#S"/><use transform="matrix(0.013020833333333334,0,0,0.013020833333333334,161.70572916666669,0)" xlink:href="#U"/><use transform="matrix(0.013020833333333334,0,0,0.013020833333333334,176.94010416666669,0)" xlink:href="#V"/><use transform="matrix(0.013020833333333334,0,0,0.013020833333333334,185.40364583333337,0)" xlink:href="#W"/><use transform="matrix(0.013020833333333334,0,0,0.013020833333333334,200.95052083333337,0)" xlink:href="#T"/><use transform="matrix(0.013020833333333334,0,0,0.013020833333333334,210.98958333333337,0)" xlink:href="#ax"/></g><g id="A"><use transform="matrix(0.013020833333333334,0,0,0.013020833333333334,0,0)" xlink:href="#ab"/><use transform="matrix(0.013020833333333334,0,0,0.013020833333333334,16.328125,0)" xlink:href="#W"/><use transform="matrix(0.013020833333333334,0,0,0.013020833333333334,31.875,0)" xlink:href="#as"/><use transform="matrix(0.013020833333333334,0,0,0.013020833333333334,40.96354166666667,0)" xlink:href="#W"/><use transform="matrix(0.013020833333333334,0,0,0.013020833333333334,56.51041666666667,0)" xlink:href="#ae"/><use transform="matrix(0.013020833333333334,0,0,0.013020833333333334,72.265625,0)" xlink:href="#ab"/><use transform="matrix(0.013020833333333334,0,0,0.013020833333333334,88.59375,0)" xlink:href="#aw"/><use transform="matrix(0.013020833333333334,0,0,0.013020833333333334,98.3203125,0)" xlink:href="#Q"/><use transform="matrix(0.013020833333333334,0,0,0.013020833333333334,117.79947916666667,0)" xlink:href="#R"/><use transform="matrix(0.013020833333333334,0,0,0.013020833333333334,133.56770833333334,0)" xlink:href="#S"/><use transform="matrix(0.013020833333333334,0,0,0.013020833333333334,148.54166666666669,0)" xlink:href="#T"/><use transform="matrix(0.013020833333333334,0,0,0.013020833333333334,158.58072916666669,0)" xlink:href="#S"/><use transform="matrix(0.013020833333333334,0,0,0.013020833333333334,173.55468750000003,0)" xlink:href="#U"/><use transform="matrix(0.013020833333333334,0,0,0.013020833333333334,188.78906250000003,0)" xlink:href="#V"/><use transform="matrix(0.013020833333333334,0,0,0.013020833333333334,197.2526041666667,0)" xlink:href="#W"/><use transform="matrix(0.013020833333333334,0,0,0.013020833333333334,212.7994791666667,0)" xlink:href="#T"/><use transform="matrix(0.013020833333333334,0,0,0.013020833333333334,222.8385416666667,0)" xlink:href="#ax"/></g><g id="B"><use transform="matrix(0.013020833333333334,0,0,0.013020833333333334,0,0)" xlink:href="#ar"/><use transform="matrix(0.013020833333333334,0,0,0.013020833333333334,16.328125,0)" xlink:href="#aq"/><use transform="matrix(0.013020833333333334,0,0,0.013020833333333334,32.09635416666667,0)" xlink:href="#as"/><use transform="matrix(0.013020833333333334,0,0,0.013020833333333334,40.92447916666667,0)" xlink:href="#as"/><use transform="matrix(0.013020833333333334,0,0,0.013020833333333334,50.79427083333334,0)" xlink:href="#aw"/><use transform="matrix(0.013020833333333334,0,0,0.013020833333333334,60.52083333333335,0)" xlink:href="#ax"/></g><g id="C"><use transform="matrix(0.013020833333333334,0,0,0.013020833333333334,0,0)" xlink:href="#an"/><use transform="matrix(0.013020833333333334,0,0,0.013020833333333334,16.328125,0)" xlink:href="#T"/><use transform="matrix(0.013020833333333334,0,0,0.013020833333333334,26.783854166666668,0)" xlink:href="#aa"/><use transform="matrix(0.013020833333333334,0,0,0.013020833333333334,33.2421875,0)" xlink:href="#ae"/><use transform="matrix(0.013020833333333334,0,0,0.013020833333333334,48.997395833333336,0)" xlink:href="#V"/><use transform="matrix(0.013020833333333334,0,0,0.013020833333333334,57.72135416666667,0)" xlink:href="#ai"/><use transform="matrix(0.013020833333333334,0,0,0.013020833333333334,74.83072916666667,0)" xlink:href="#V"/><use transform="matrix(0.013020833333333334,0,0,0.013020833333333334,83.68489583333333,0)" xlink:href="#S"/><use transform="matrix(0.013020833333333334,0,0,0.013020833333333334,98.65885416666666,0)" xlink:href="#V"/><use transform="matrix(0.013020833333333334,0,0,0.013020833333333334,107.38281249999999,0)" xlink:href="#aq"/><use transform="matrix(0.013020833333333334,0,0,0.013020833333333334,123.15104166666664,0)" xlink:href="#af"/><use transform="matrix(0.013020833333333334,0,0,0.013020833333333334,137.2265625,0)" xlink:href="#aw"/><use transform="matrix(0.013020833333333334,0,0,0.013020833333333334,146.953125,0)" xlink:href="#ax"/></g><path d="M180 0v-1490h270l367 940c28 72 75 218 110 339 35-117 81-264 110-339l362-940h271V0h-187c2-448-5-837 7-1287-157 497-311 829-483 1287H842C666-458 514-784 354-1284c12 438 5 843 7 1284H180" id="aC"/><g id="D"><use transform="matrix(0.013020833333333334,0,0,0.013020833333333334,0,0)" xlink:href="#aC"/><use transform="matrix(0.013020833333333334,0,0,0.013020833333333334,24.088541666666668,0)" xlink:href="#S"/><use transform="matrix(0.013020833333333334,0,0,0.013020833333333334,39.0625,0)" xlink:href="#aj"/><use transform="matrix(0.013020833333333334,0,0,0.013020833333333334,55.41666666666667,0)" xlink:href="#W"/></g><g id="E"><use transform="matrix(0.013020833333333334,0,0,0.013020833333333334,0,0)" xlink:href="#V"/><use transform="matrix(0.013020833333333334,0,0,0.013020833333333334,9.244791666666668,0)" xlink:href="#am"/><use transform="matrix(0.013020833333333334,0,0,0.013020833333333334,24.231770833333336,0)" xlink:href="#an"/><use transform="matrix(0.013020833333333334,0,0,0.013020833333333334,40.559895833333336,0)" xlink:href="#W"/><use transform="matrix(0.013020833333333334,0,0,0.013020833333333334,56.106770833333336,0)" xlink:href="#ag"/><path d="M-1.33 5.44h73.96v1.82H-1.33z"/></g><g id="F"><use transform="matrix(0.013020833333333334,0,0,0.013020833333333334,0,0)" xlink:href="#al"/><use transform="matrix(0.013020833333333334,0,0,0.013020833333333334,23.359375,0)" xlink:href="#S"/><use transform="matrix(0.013020833333333334,0,0,0.013020833333333334,38.333333333333336,0)" xlink:href="#at"/><use transform="matrix(0.013020833333333334,0,0,0.013020833333333334,52.890625,0)" xlink:href="#au"/><use transform="matrix(0.013020833333333334,0,0,0.013020833333333334,72.70833333333334,0)" xlink:href="#W"/><use transform="matrix(0.013020833333333334,0,0,0.013020833333333334,88.51562500000001,0)" xlink:href="#S"/><use transform="matrix(0.013020833333333334,0,0,0.013020833333333334,103.48958333333334,0)" xlink:href="#Z"/><use transform="matrix(0.013020833333333334,0,0,0.013020833333333334,110.33854166666667,0)" xlink:href="#V"/><use transform="matrix(0.013020833333333334,0,0,0.013020833333333334,119.0625,0)" xlink:href="#R"/><use transform="matrix(0.013020833333333334,0,0,0.013020833333333334,134.83072916666666,0)" xlink:href="#ag"/><path d="M-1.33 5.44h152.68v1.82H-1.33z"/></g><g id="G"><use transform="matrix(0.013020833333333334,0,0,0.013020833333333334,0,0)" xlink:href="#ap"/><use transform="matrix(0.013020833333333334,0,0,0.013020833333333334,20.091145833333336,0)" xlink:href="#aq"/><use transform="matrix(0.013020833333333334,0,0,0.013020833333333334,35.859375,0)" xlink:href="#al"/><use transform="matrix(0.013020833333333334,0,0,0.013020833333333334,59.21875,0)" xlink:href="#ar"/><use transform="matrix(0.013020833333333334,0,0,0.013020833333333334,75.546875,0)" xlink:href="#W"/><use transform="matrix(0.013020833333333334,0,0,0.013020833333333334,91.09375,0)" xlink:href="#T"/><path d="M-1.33 5.44h103.8v1.82H-1.33z"/></g><g id="H"><use transform="matrix(0.013020833333333334,0,0,0.013020833333333334,0,0)" xlink:href="#S"/><use transform="matrix(0.013020833333333334,0,0,0.013020833333333334,14.973958333333334,0)" xlink:href="#V"/><use transform="matrix(0.013020833333333334,0,0,0.013020833333333334,23.046875,0)" xlink:href="#V"/><use transform="matrix(0.013020833333333334,0,0,0.013020833333333334,31.90104166666666,0)" xlink:href="#S"/><use transform="matrix(0.013020833333333334,0,0,0.013020833333333334,46.875,0)" xlink:href="#U"/><use transform="matrix(0.013020833333333334,0,0,0.013020833333333334,62.109375,0)" xlink:href="#ao"/><use transform="matrix(0.013020833333333334,0,0,0.013020833333333334,76.74479166666667,0)" xlink:href="#ai"/><use transform="matrix(0.013020833333333334,0,0,0.013020833333333334,93.85416666666667,0)" xlink:href="#V"/><use transform="matrix(0.013020833333333334,0,0,0.013020833333333334,102.578125,0)" xlink:href="#T"/><use transform="matrix(0.013020833333333334,0,0,0.013020833333333334,112.17447916666667,0)" xlink:href="#W"/><use transform="matrix(0.013020833333333334,0,0,0.013020833333333334,127.72135416666667,0)" xlink:href="#ae"/><use transform="matrix(0.013020833333333334,0,0,0.013020833333333334,143.4765625,0)" xlink:href="#aj"/><use transform="matrix(0.013020833333333334,0,0,0.013020833333333334,159.83072916666666,0)" xlink:href="#V"/><use transform="matrix(0.013020833333333334,0,0,0.013020833333333334,168.5546875,0)" xlink:href="#R"/><use transform="matrix(0.013020833333333334,0,0,0.013020833333333334,184.32291666666666,0)" xlink:href="#ag"/><path d="M-1.33 5.44h202.17v1.82H-1.33z"/></g><g id="I"><use transform="matrix(0.013020833333333334,0,0,0.013020833333333334,0,0)" xlink:href="#ab"/><use transform="matrix(0.013020833333333334,0,0,0.013020833333333334,16.328125,0)" xlink:href="#W"/><use transform="matrix(0.013020833333333334,0,0,0.013020833333333334,31.875,0)" xlink:href="#as"/><use transform="matrix(0.013020833333333334,0,0,0.013020833333333334,40.96354166666667,0)" xlink:href="#W"/><use transform="matrix(0.013020833333333334,0,0,0.013020833333333334,56.51041666666667,0)" xlink:href="#ae"/><use transform="matrix(0.013020833333333334,0,0,0.013020833333333334,72.265625,0)" xlink:href="#af"/><use transform="matrix(0.013020833333333334,0,0,0.013020833333333334,86.34114583333333,0)" xlink:href="#W"/><use transform="matrix(0.013020833333333334,0,0,0.013020833333333334,101.88802083333333,0)" xlink:href="#ai"/><use transform="matrix(0.013020833333333334,0,0,0.013020833333333334,118.99739583333334,0)" xlink:href="#V"/><use transform="matrix(0.013020833333333334,0,0,0.013020833333333334,127.72135416666664,0)" xlink:href="#T"/><use transform="matrix(0.013020833333333334,0,0,0.013020833333333334,137.31770833333331,0)" xlink:href="#W"/><use transform="matrix(0.013020833333333334,0,0,0.013020833333333334,152.86458333333331,0)" xlink:href="#ae"/><use transform="matrix(0.013020833333333334,0,0,0.013020833333333334,168.61979166666666,0)" xlink:href="#aj"/><use transform="matrix(0.013020833333333334,0,0,0.013020833333333334,184.97395833333331,0)" xlink:href="#V"/><use transform="matrix(0.013020833333333334,0,0,0.013020833333333334,193.69791666666666,0)" xlink:href="#R"/><use transform="matrix(0.013020833333333334,0,0,0.013020833333333334,209.46614583333331,0)" xlink:href="#ag"/><path d="M-1.33 5.44H226v1.82H-1.34z"/></g><g id="J"><use transform="matrix(0.013020833333333334,0,0,0.013020833333333334,0,0)" xlink:href="#ar"/><use transform="matrix(0.013020833333333334,0,0,0.013020833333333334,16.328125,0)" xlink:href="#aq"/><use transform="matrix(0.013020833333333334,0,0,0.013020833333333334,32.09635416666667,0)" xlink:href="#as"/><use transform="matrix(0.013020833333333334,0,0,0.013020833333333334,40.92447916666667,0)" xlink:href="#as"/><use transform="matrix(0.013020833333333334,0,0,0.013020833333333334,50.79427083333334,0)" xlink:href="#aA"/><use transform="matrix(0.013020833333333334,0,0,0.013020833333333334,70.03906250000001,0)" xlink:href="#W"/><use transform="matrix(0.013020833333333334,0,0,0.013020833333333334,85.58593750000001,0)" xlink:href="#af"/><use transform="matrix(0.013020833333333334,0,0,0.013020833333333334,99.66145833333334,0)" xlink:href="#U"/><use transform="matrix(0.013020833333333334,0,0,0.013020833333333334,114.89583333333334,0)" xlink:href="#T"/><use transform="matrix(0.013020833333333334,0,0,0.013020833333333334,125.3515625,0)" xlink:href="#aa"/><use transform="matrix(0.013020833333333334,0,0,0.013020833333333334,131.80989583333334,0)" xlink:href="#an"/><use transform="matrix(0.013020833333333334,0,0,0.013020833333333334,148.13802083333334,0)" xlink:href="#V"/><use transform="matrix(0.013020833333333334,0,0,0.013020833333333334,156.86197916666669,0)" xlink:href="#aa"/><use transform="matrix(0.013020833333333334,0,0,0.013020833333333334,163.32031250000003,0)" xlink:href="#ad"/><use transform="matrix(0.013020833333333334,0,0,0.013020833333333334,179.30989583333337,0)" xlink:href="#ae"/><use transform="matrix(0.013020833333333334,0,0,0.013020833333333334,195.0651041666667,0)" xlink:href="#ag"/><path d="M-1.33 5.44h212.9v1.82H-1.32z"/></g><g id="K"><use transform="matrix(0.013020833333333334,0,0,0.013020833333333334,0,0)" xlink:href="#ai"/><use transform="matrix(0.013020833333333334,0,0,0.013020833333333334,17.109375,0)" xlink:href="#V"/><use transform="matrix(0.013020833333333334,0,0,0.013020833333333334,25.833333333333336,0)" xlink:href="#T"/><use transform="matrix(0.013020833333333334,0,0,0.013020833333333334,36.2890625,0)" xlink:href="#aa"/><use transform="matrix(0.013020833333333334,0,0,0.013020833333333334,42.747395833333336,0)" xlink:href="#ae"/><use transform="matrix(0.013020833333333334,0,0,0.013020833333333334,58.50260416666667,0)" xlink:href="#aj"/><path d="M-1.33 5.44H76.2v1.82H-1.34z"/></g><path d="M458 0L52-1490h194c108 439 233 855 324 1313 92-459 221-873 331-1313h216c110 438 234 854 330 1307 92-455 216-869 323-1307h196L1558 0h-221l-256-944c-26-95-50-200-73-331-22 122-44 223-73 331L680 0H458" id="aD"/><g id="L"><use transform="matrix(0.013020833333333334,0,0,0.013020833333333334,0,0)" xlink:href="#aD"/><use transform="matrix(0.013020833333333334,0,0,0.013020833333333334,24.921875,0)" xlink:href="#S"/><use transform="matrix(0.013020833333333334,0,0,0.013020833333333334,39.895833333333336,0)" xlink:href="#T"/><use transform="matrix(0.013020833333333334,0,0,0.013020833333333334,50.3515625,0)" xlink:href="#T"/><use transform="matrix(0.013020833333333334,0,0,0.013020833333333334,60.80729166666667,0)" xlink:href="#aa"/><use transform="matrix(0.013020833333333334,0,0,0.013020833333333334,67.265625,0)" xlink:href="#ad"/><use transform="matrix(0.013020833333333334,0,0,0.013020833333333334,83.25520833333333,0)" xlink:href="#T"/></g><g id="M"><use transform="matrix(0.013020833333333334,0,0,0.013020833333333334,0,0)" xlink:href="#ac"/><use transform="matrix(0.013020833333333334,0,0,0.013020833333333334,18.3984375,0)" xlink:href="#T"/><use transform="matrix(0.013020833333333334,0,0,0.013020833333333334,27.994791666666668,0)" xlink:href="#U"/><use transform="matrix(0.013020833333333334,0,0,0.013020833333333334,43.22916666666667,0)" xlink:href="#R"/><use transform="matrix(0.013020833333333334,0,0,0.013020833333333334,58.99739583333335,0)" xlink:href="#W"/><use transform="matrix(0.013020833333333334,0,0,0.013020833333333334,74.54427083333334,0)" xlink:href="#T"/></g><path d="M784 20c-382 0-662-292-662-764 0-473 280-766 662-766s660 293 660 766c0 472-278 764-660 764zm0-176c266 0 475-207 475-588 0-383-209-590-475-590-268 0-477 208-477 590 0 380 209 588 477 588" id="aE"/><g id="N"><use transform="matrix(0.013020833333333334,0,0,0.013020833333333334,0,0)" xlink:href="#aE"/><use transform="matrix(0.013020833333333334,0,0,0.013020833333333334,20.390625,0)" xlink:href="#T"/><use transform="matrix(0.013020833333333334,0,0,0.013020833333333334,29.986979166666668,0)" xlink:href="#U"/></g><g id="O"><use transform="matrix(0.013020833333333334,0,0,0.013020833333333334,0,0)" xlink:href="#aA"/><use transform="matrix(0.013020833333333334,0,0,0.013020833333333334,19.244791666666668,0)" xlink:href="#T"/><use transform="matrix(0.013020833333333334,0,0,0.013020833333333334,29.283854166666668,0)" xlink:href="#S"/><use transform="matrix(0.013020833333333334,0,0,0.013020833333333334,44.2578125,0)" xlink:href="#aj"/><use transform="matrix(0.013020833333333334,0,0,0.013020833333333334,60.61197916666667,0)" xlink:href="#ad"/><use transform="matrix(0.013020833333333334,0,0,0.013020833333333334,76.6015625,0)" xlink:href="#ae"/></g><path d="M789 20c-398 0-667-293-667-764 0-473 273-766 655-766 315 0 558 198 612 487h-196c-61-191-204-311-415-311-262 0-471 207-471 590 0 380 208 588 482 588 249 0 420-165 425-427H828v-166h572v163c0 370-256 606-611 606" id="aF"/><g id="P"><use transform="matrix(0.013020833333333334,0,0,0.013020833333333334,0,0)" xlink:href="#aF"/><use transform="matrix(0.013020833333333334,0,0,0.013020833333333334,19.895833333333336,0)" xlink:href="#ad"/><use transform="matrix(0.013020833333333334,0,0,0.013020833333333334,35.88541666666667,0)" xlink:href="#ar"/><use transform="matrix(0.013020833333333334,0,0,0.013020833333333334,52.21354166666667,0)" xlink:href="#Z"/><use transform="matrix(0.013020833333333334,0,0,0.013020833333333334,58.671875,0)" xlink:href="#aa"/><use transform="matrix(0.013020833333333334,0,0,0.013020833333333334,65.13020833333334,0)" xlink:href="#ae"/></g></defs></g></svg>